<svg width="16" height="12" viewBox="0 0 16 12" fill="none" xmlns="http://www.w3.org/2000/svg">
<path fill-rule="evenodd" clip-rule="evenodd" d="M15.1082 5.5583C15.2253 5.67549 15.291 5.83434 15.291 5.99997C15.291 6.16559 15.2253 6.32444 15.1082 6.44163L10.1082 11.4416C10.051 11.503 9.98201 11.5523 9.90535 11.5864C9.82868 11.6206 9.74592 11.639 9.662 11.6405C9.57808 11.6419 9.49472 11.6265 9.4169 11.5951C9.33908 11.5636 9.26838 11.5168 9.20903 11.4575C9.14969 11.3981 9.1029 11.3275 9.07146 11.2496C9.04003 11.1718 9.02459 11.0884 9.02607 11.0045C9.02755 10.9206 9.04592 10.8378 9.08008 10.7612C9.11424 10.6845 9.16349 10.6155 9.2249 10.5583L13.1582 6.62497L1.33323 6.62497C1.16747 6.62497 1.0085 6.55912 0.891291 6.44191C0.77408 6.3247 0.708233 6.16573 0.708233 5.99997C0.708233 5.8342 0.77408 5.67523 0.891291 5.55802C1.0085 5.44081 1.16747 5.37497 1.33323 5.37497L13.1582 5.37497L9.2249 1.44163C9.16349 1.38441 9.11424 1.31541 9.08008 1.23875C9.04592 1.16208 9.02755 1.07932 9.02607 0.995401C9.02459 0.911481 9.04003 0.828124 9.07146 0.7503C9.1029 0.672477 9.14969 0.601782 9.20903 0.542433C9.26838 0.483084 9.33908 0.436297 9.4169 0.404863C9.49472 0.373429 9.57808 0.357992 9.662 0.359472C9.74592 0.360953 9.82868 0.379321 9.90535 0.413481C9.98201 0.447641 10.051 0.496893 10.1082 0.558298L15.1082 5.5583Z" fill="#264790"/>
</svg>
